<svg height="1452" width="1743.9999999999998" xmlns="http://www.w3.org/2000/svg">
 <!-- Created with Image Occlusion Enhanced -->
 <g>
  <title>Labels</title>
 </g>
 <g>
  <title>Masks</title>
  <g id="c5aa4263638044dd815d1e2cae229a84-oa-1">
   <rect fill="#FFFFFF" height="46.66667" stroke="#2D2D2D" width="253.33333" x="419.33328" y="417.99997"/>
   <rect fill="#FFFFFF" height="66.66667" stroke="#2D2D2D" width="233.33333" x="282.66661" y="557.99997"/>
   <rect fill="#FFFFFF" height="73.33333" stroke="#2D2D2D" width="233.33333" x="282.66661" y="674.66664"/>
   <rect fill="#FFFFFF" height="66.66667" stroke="#2D2D2D" width="223.33333" x="595.99994" y="557.99997"/>
   <rect fill="#FFFFFF" height="70" stroke="#2D2D2D" width="226.66666" x="599.33328" y="684.66664"/>
   <rect fill="#FFFFFF" height="43.33333" stroke="#2D2D2D" width="90" x="599.33328" y="794.66664"/>
   <rect fill="#FFFFFF" height="53.33333" stroke="#2D2D2D" width="73.33333" x="749.33327" y="787.99997"/>
   <rect fill="#FFFFFF" height="66.66667" stroke="#2D2D2D" width="240" x="275.99995" y="797.99997"/>
   <rect fill="#FFFFFF" height="53.33333" stroke="#2D2D2D" width="90" x="349.33328" y="904.66663"/>
   <rect fill="#FFFFFF" height="53.33333" stroke="#2D2D2D" width="100" x="142.66662" y="787.99997"/>
  </g>
  <g id="c5aa4263638044dd815d1e2cae229a84-oa-2">
   <rect fill="#FFFFFF" height="40" stroke="#2D2D2D" width="256.66666" x="409.33328" y="327.99998"/>
   <rect fill="#FFFFFF" height="43.33333" stroke="#2D2D2D" width="273.33333" x="1102.6666" y="327.99998"/>
  </g>
  <g id="c5aa4263638044dd815d1e2cae229a84-oa-5">
   <rect fill="#FFFFFF" height="73.33333" stroke="#2D2D2D" width="186.66666" x="1062.6666" y="577.99997"/>
   <rect fill="#FFFFFF" height="83.33333" stroke="#2D2D2D" width="389.99999" x="919.33327" y="984.66663"/>
   <rect fill="#FFFFFF" height="80" stroke="#2D2D2D" width="180" x="1275.99993" y="574.66664"/>
   <rect fill="#FFFFFF" height="70" stroke="#2D2D2D" width="193.33333" x="1259.33327" y="701.3333"/>
   <rect fill="#FFFFFF" height="76.66667" stroke="#2D2D2D" width="166.66666" x="1185.99993" y="857.99997"/>
   <rect fill="#FFFFFF" height="76.66667" stroke="#2D2D2D" width="193.33333" x="1379.33327" y="857.99997"/>
   <rect fill="#FFFFFF" height="76.66667" stroke="#2D2D2D" width="186.66666" x="1475.99993" y="581.3333"/>
  </g>
  <g id="c5aa4263638044dd815d1e2cae229a84-oa-6">
   <rect fill="#FFFFFF" height="233.33333" stroke="#2D2D2D" width="250" x="1392.6666" y="994.66663"/>
   <rect fill="#FFFFFF" height="116.66667" stroke="#2D2D2D" width="399.99999" x="922.6666" y="1121.3333"/>
  </g>
  <rect fill="#FFFFFF" height="143.33333" id="c5aa4263638044dd815d1e2cae229a84-oa-7" stroke="#2D2D2D" width="283.33333" x="569.33328" y="1017.99997"/>
  <g id="c5aa4263638044dd815d1e2cae229a84-oa-3">
   <rect fill="#FFFFFF" height="63.33333" stroke="#2D2D2D" width="226.66666" x="912.66661" y="451.33331"/>
   <rect fill="#FFFFFF" height="43.33333" stroke="#2D2D2D" width="243.33333" x="1242.6666" y="464.66664"/>
  </g>
 </g>
</svg>